<?xml version="1.0" encoding="utf-8"?>
<!-- Generator: Adobe Illustrator 25.4.1, SVG Export Plug-In . SVG Version: 6.00 Build 0)  -->
<svg version="1.1" id="Capa_1" xmlns="http://www.w3.org/2000/svg" xmlns:xlink="http://www.w3.org/1999/xlink" x="0px" y="0px"
	 viewBox="0 0 16 16" style="enable-background:new 0 0 16 16;" xml:space="preserve">
<style type="text/css">
	.st0{fill:#FFFFFF;}
</style>
<path class="st0" d="M2,3.5C1.7,3.5,1.5,3.7,1.5,4v0.7l5.4,4.4c0.6,0.5,1.6,0.5,2.2,0l5.4-4.4V4c0-0.3-0.2-0.5-0.5-0.5H2z M1.5,6.6
	V12c0,0.3,0.2,0.5,0.5,0.5h12c0.3,0,0.5-0.2,0.5-0.5V6.6l-4.4,3.6c-1.2,1-2.9,1-4.1,0L1.5,6.6z M0,4c0-1.1,0.9-2,2-2h12
	c1.1,0,2,0.9,2,2v8c0,1.1-0.9,2-2,2H2c-1.1,0-2-0.9-2-2V4z"/>
</svg>
