<?xml version="1.0" encoding="utf-8"?>
<!-- Generator: Adobe Illustrator 25.4.1, SVG Export Plug-In . SVG Version: 6.00 Build 0)  -->
<svg version="1.1" id="Capa_1" xmlns="http://www.w3.org/2000/svg" xmlns:xlink="http://www.w3.org/1999/xlink" x="0px" y="0px"
	 viewBox="0 0 14 16" style="enable-background:new 0 0 14 16;" xml:space="preserve">
<style type="text/css">
	.st0{fill:#FFFFFF;}
</style>
<path class="st0" d="M14,6.6c-1.4,0-2.7-0.4-3.8-1.2v5.6c0,2.8-2.3,5.1-5.1,5.1C2.3,16,0,13.7,0,10.9s2.3-5.1,5.1-5.1
	c0.2,0,0.5,0,0.7,0v2.8C4.6,8.3,3.2,9,2.9,10.2s0.3,2.5,1.5,2.9c1.2,0.4,2.5-0.3,2.9-1.5c0.1-0.2,0.1-0.5,0.1-0.7V0h2.8
	c0,0.2,0,0.5,0.1,0.7l0,0c0.2,1,0.8,1.9,1.7,2.5c0.6,0.4,1.3,0.6,2.1,0.6V6.6z"/>
</svg>
