<?xml version="1.0" encoding="utf-8"?>
<!-- Generator: Adobe Illustrator 25.4.1, SVG Export Plug-In . SVG Version: 6.00 Build 0)  -->
<svg version="1.1" id="Capa_1" xmlns="http://www.w3.org/2000/svg" xmlns:xlink="http://www.w3.org/1999/xlink" x="0px" y="0px"
	 viewBox="0 0 18 16" style="enable-background:new 0 0 18 16;" xml:space="preserve">
<style type="text/css">
	.st0{fill:#FFFFFF;}
</style>
<path class="st0" d="M17.2,3.9c-0.2-0.7-0.8-1.3-1.5-1.5C14.3,2,9,2,9,2S3.7,2,2.3,2.4C1.6,2.6,1,3.1,0.8,3.9C0.5,5.2,0.5,8,0.5,8
	s0,2.8,0.4,4.1c0.2,0.7,0.8,1.3,1.5,1.5C3.7,14,9,14,9,14s5.3,0,6.7-0.4c0.7-0.2,1.3-0.8,1.5-1.5c0.4-1.3,0.4-4.1,0.4-4.1
	S17.5,5.2,17.2,3.9z M7.3,10.6V5.5L11.7,8C11.7,8,7.3,10.5,7.3,10.6z"/>
</svg>
